<svg xmlns="http://www.w3.org/2000/svg" xmlns:xlink="http://www.w3.org/1999/xlink" width="500" zoomAndPan="magnify" viewBox="0 0 375 374.999991" height="500" preserveAspectRatio="xMidYMid meet" version="1.0"><defs><clipPath id="b5aace511e"><path d="M 0 0 L 375 0 L 375 375 L 0 375 Z M 0 0 " clip-rule="nonzero"/></clipPath><linearGradient x1="0" gradientTransform="matrix(1.493437, 0, 0, 1.493437, 0.0000045, -2.336176)" y1="129.042999" x2="251.098595" gradientUnits="userSpaceOnUse" y2="129.042999" id="70a8676ae3"><stop stop-opacity="1" stop-color="rgb(11.759949%, 18.03894%, 45.489502%)" offset="0"/><stop stop-opacity="1" stop-color="rgb(11.813354%, 18.127441%, 45.646667%)" offset="0.0078125"/><stop stop-opacity="1" stop-color="rgb(11.920166%, 18.304443%, 45.962524%)" offset="0.015625"/><stop stop-opacity="1" stop-color="rgb(12.028503%, 18.482971%, 46.276855%)" offset="0.0234375"/><stop stop-opacity="1" stop-color="rgb(12.136841%, 18.659973%, 46.592712%)" offset="0.03125"/><stop stop-opacity="1" stop-color="rgb(12.245178%, 18.836975%, 46.908569%)" offset="0.0390625"/><stop stop-opacity="1" stop-color="rgb(12.353516%, 19.013977%, 47.224426%)" offset="0.046875"/><stop stop-opacity="1" stop-color="rgb(12.461853%, 19.190979%, 47.540283%)" offset="0.0546875"/><stop stop-opacity="1" stop-color="rgb(12.57019%, 19.369507%, 47.854614%)" offset="0.0625"/><stop stop-opacity="1" stop-color="rgb(12.678528%, 19.546509%, 48.170471%)" offset="0.0703125"/><stop stop-opacity="1" stop-color="rgb(12.786865%, 19.723511%, 48.486328%)" offset="0.078125"/><stop stop-opacity="1" stop-color="rgb(12.895203%, 19.900513%, 48.802185%)" offset="0.0859375"/><stop stop-opacity="1" stop-color="rgb(13.00354%, 20.077515%, 49.118042%)" offset="0.09375"/><stop stop-opacity="1" stop-color="rgb(13.110352%, 20.256042%, 49.432373%)" offset="0.101562"/><stop stop-opacity="1" stop-color="rgb(13.218689%, 20.433044%, 49.74823%)" offset="0.109375"/><stop stop-opacity="1" stop-color="rgb(13.327026%, 20.610046%, 50.064087%)" offset="0.117188"/><stop stop-opacity="1" stop-color="rgb(13.435364%, 20.787048%, 50.379944%)" offset="0.125"/><stop stop-opacity="1" stop-color="rgb(13.543701%, 20.965576%, 50.695801%)" offset="0.132812"/><stop stop-opacity="1" stop-color="rgb(13.652039%, 21.142578%, 51.011658%)" offset="0.140625"/><stop stop-opacity="1" stop-color="rgb(13.760376%, 21.31958%, 51.325989%)" offset="0.148438"/><stop stop-opacity="1" stop-color="rgb(13.868713%, 21.496582%, 51.641846%)" offset="0.15625"/><stop stop-opacity="1" stop-color="rgb(13.977051%, 21.673584%, 51.957703%)" offset="0.164063"/><stop stop-opacity="1" stop-color="rgb(14.085388%, 21.852112%, 52.27356%)" offset="0.171875"/><stop stop-opacity="1" stop-color="rgb(14.193726%, 22.029114%, 52.589417%)" offset="0.179688"/><stop stop-opacity="1" stop-color="rgb(14.300537%, 22.206116%, 52.903748%)" offset="0.1875"/><stop stop-opacity="1" stop-color="rgb(14.408875%, 22.383118%, 53.219604%)" offset="0.195312"/><stop stop-opacity="1" stop-color="rgb(14.517212%, 22.56012%, 53.535461%)" offset="0.203125"/><stop stop-opacity="1" stop-color="rgb(14.625549%, 22.738647%, 53.851318%)" offset="0.210937"/><stop stop-opacity="1" stop-color="rgb(14.733887%, 22.915649%, 54.167175%)" offset="0.21875"/><stop stop-opacity="1" stop-color="rgb(14.842224%, 23.092651%, 54.481506%)" offset="0.226562"/><stop stop-opacity="1" stop-color="rgb(14.950562%, 23.269653%, 54.797363%)" offset="0.234375"/><stop stop-opacity="1" stop-color="rgb(15.058899%, 23.446655%, 55.11322%)" offset="0.242188"/><stop stop-opacity="1" stop-color="rgb(15.167236%, 23.625183%, 55.429077%)" offset="0.25"/><stop stop-opacity="1" stop-color="rgb(15.275574%, 23.802185%, 55.744934%)" offset="0.257813"/><stop stop-opacity="1" stop-color="rgb(15.383911%, 23.979187%, 56.059265%)" offset="0.265625"/><stop stop-opacity="1" stop-color="rgb(15.490723%, 24.156189%, 56.375122%)" offset="0.273438"/><stop stop-opacity="1" stop-color="rgb(15.59906%, 24.333191%, 56.690979%)" offset="0.28125"/><stop stop-opacity="1" stop-color="rgb(15.707397%, 24.511719%, 57.006836%)" offset="0.289063"/><stop stop-opacity="1" stop-color="rgb(15.815735%, 24.688721%, 57.322693%)" offset="0.296875"/><stop stop-opacity="1" stop-color="rgb(15.924072%, 24.865723%, 57.637024%)" offset="0.304688"/><stop stop-opacity="1" stop-color="rgb(16.03241%, 25.042725%, 57.952881%)" offset="0.3125"/><stop stop-opacity="1" stop-color="rgb(16.140747%, 25.221252%, 58.268738%)" offset="0.320313"/><stop stop-opacity="1" stop-color="rgb(16.249084%, 25.398254%, 58.584595%)" offset="0.328125"/><stop stop-opacity="1" stop-color="rgb(16.357422%, 25.575256%, 58.900452%)" offset="0.335938"/><stop stop-opacity="1" stop-color="rgb(16.465759%, 25.752258%, 59.214783%)" offset="0.34375"/><stop stop-opacity="1" stop-color="rgb(16.574097%, 25.92926%, 59.53064%)" offset="0.351562"/><stop stop-opacity="1" stop-color="rgb(16.680908%, 26.107788%, 59.846497%)" offset="0.359375"/><stop stop-opacity="1" stop-color="rgb(16.789246%, 26.28479%, 60.162354%)" offset="0.367188"/><stop stop-opacity="1" stop-color="rgb(16.897583%, 26.461792%, 60.47821%)" offset="0.375"/><stop stop-opacity="1" stop-color="rgb(17.00592%, 26.638794%, 60.792542%)" offset="0.382812"/><stop stop-opacity="1" stop-color="rgb(17.114258%, 26.815796%, 61.108398%)" offset="0.390625"/><stop stop-opacity="1" stop-color="rgb(17.222595%, 26.994324%, 61.424255%)" offset="0.398438"/><stop stop-opacity="1" stop-color="rgb(17.330933%, 27.171326%, 61.740112%)" offset="0.40625"/><stop stop-opacity="1" stop-color="rgb(17.43927%, 27.348328%, 62.055969%)" offset="0.414062"/><stop stop-opacity="1" stop-color="rgb(17.547607%, 27.52533%, 62.3703%)" offset="0.421875"/><stop stop-opacity="1" stop-color="rgb(17.655945%, 27.702332%, 62.686157%)" offset="0.429687"/><stop stop-opacity="1" stop-color="rgb(17.764282%, 27.880859%, 63.002014%)" offset="0.4375"/><stop stop-opacity="1" stop-color="rgb(17.87262%, 28.057861%, 63.317871%)" offset="0.445312"/><stop stop-opacity="1" stop-color="rgb(17.979431%, 28.234863%, 63.633728%)" offset="0.453125"/><stop stop-opacity="1" stop-color="rgb(18.087769%, 28.411865%, 63.949585%)" offset="0.460937"/><stop stop-opacity="1" stop-color="rgb(18.196106%, 28.588867%, 64.263916%)" offset="0.46875"/><stop stop-opacity="1" stop-color="rgb(18.304443%, 28.767395%, 64.579773%)" offset="0.476562"/><stop stop-opacity="1" stop-color="rgb(18.412781%, 28.944397%, 64.89563%)" offset="0.484375"/><stop stop-opacity="1" stop-color="rgb(18.521118%, 29.121399%, 65.211487%)" offset="0.492187"/><stop stop-opacity="1" stop-color="rgb(18.629456%, 29.298401%, 65.527344%)" offset="0.5"/><stop stop-opacity="1" stop-color="rgb(18.737793%, 29.476929%, 65.841675%)" offset="0.507812"/><stop stop-opacity="1" stop-color="rgb(18.84613%, 29.653931%, 66.157532%)" offset="0.515625"/><stop stop-opacity="1" stop-color="rgb(18.954468%, 29.830933%, 66.473389%)" offset="0.523438"/><stop stop-opacity="1" stop-color="rgb(19.062805%, 30.007935%, 66.789246%)" offset="0.53125"/><stop stop-opacity="1" stop-color="rgb(19.169617%, 30.184937%, 67.105103%)" offset="0.539062"/><stop stop-opacity="1" stop-color="rgb(19.277954%, 30.363464%, 67.419434%)" offset="0.546875"/><stop stop-opacity="1" stop-color="rgb(19.386292%, 30.540466%, 67.735291%)" offset="0.554688"/><stop stop-opacity="1" stop-color="rgb(19.494629%, 30.717468%, 68.051147%)" offset="0.5625"/><stop stop-opacity="1" stop-color="rgb(19.602966%, 30.89447%, 68.367004%)" offset="0.570313"/><stop stop-opacity="1" stop-color="rgb(19.711304%, 31.071472%, 68.682861%)" offset="0.578125"/><stop stop-opacity="1" stop-color="rgb(19.819641%, 31.25%, 68.997192%)" offset="0.585938"/><stop stop-opacity="1" stop-color="rgb(19.927979%, 31.427002%, 69.313049%)" offset="0.59375"/><stop stop-opacity="1" stop-color="rgb(20.036316%, 31.604004%, 69.628906%)" offset="0.601563"/><stop stop-opacity="1" stop-color="rgb(20.144653%, 31.781006%, 69.944763%)" offset="0.609375"/><stop stop-opacity="1" stop-color="rgb(20.252991%, 31.958008%, 70.26062%)" offset="0.617188"/><stop stop-opacity="1" stop-color="rgb(20.359802%, 32.136536%, 70.574951%)" offset="0.625"/><stop stop-opacity="1" stop-color="rgb(20.46814%, 32.313538%, 70.890808%)" offset="0.632813"/><stop stop-opacity="1" stop-color="rgb(20.576477%, 32.49054%, 71.206665%)" offset="0.640625"/><stop stop-opacity="1" stop-color="rgb(20.684814%, 32.667542%, 71.522522%)" offset="0.648438"/><stop stop-opacity="1" stop-color="rgb(20.793152%, 32.844543%, 71.838379%)" offset="0.65625"/><stop stop-opacity="1" stop-color="rgb(20.901489%, 33.023071%, 72.15271%)" offset="0.664063"/><stop stop-opacity="1" stop-color="rgb(21.009827%, 33.200073%, 72.468567%)" offset="0.671875"/><stop stop-opacity="1" stop-color="rgb(21.118164%, 33.377075%, 72.784424%)" offset="0.679688"/><stop stop-opacity="1" stop-color="rgb(21.226501%, 33.554077%, 73.100281%)" offset="0.6875"/><stop stop-opacity="1" stop-color="rgb(21.334839%, 33.732605%, 73.416138%)" offset="0.695312"/><stop stop-opacity="1" stop-color="rgb(21.443176%, 33.909607%, 73.730469%)" offset="0.703125"/><stop stop-opacity="1" stop-color="rgb(21.549988%, 34.086609%, 74.046326%)" offset="0.710938"/><stop stop-opacity="1" stop-color="rgb(21.658325%, 34.263611%, 74.362183%)" offset="0.71875"/><stop stop-opacity="1" stop-color="rgb(21.766663%, 34.440613%, 74.67804%)" offset="0.726562"/><stop stop-opacity="1" stop-color="rgb(21.875%, 34.619141%, 74.993896%)" offset="0.734375"/><stop stop-opacity="1" stop-color="rgb(21.983337%, 34.796143%, 75.308228%)" offset="0.742188"/><stop stop-opacity="1" stop-color="rgb(22.091675%, 34.973145%, 75.624084%)" offset="0.75"/><stop stop-opacity="1" stop-color="rgb(22.200012%, 35.150146%, 75.939941%)" offset="0.757812"/><stop stop-opacity="1" stop-color="rgb(22.30835%, 35.327148%, 76.255798%)" offset="0.765625"/><stop stop-opacity="1" stop-color="rgb(22.416687%, 35.505676%, 76.571655%)" offset="0.773438"/><stop stop-opacity="1" stop-color="rgb(22.525024%, 35.682678%, 76.887512%)" offset="0.78125"/><stop stop-opacity="1" stop-color="rgb(22.633362%, 35.85968%, 77.201843%)" offset="0.789062"/><stop stop-opacity="1" stop-color="rgb(22.740173%, 36.036682%, 77.5177%)" offset="0.796875"/><stop stop-opacity="1" stop-color="rgb(22.848511%, 36.213684%, 77.833557%)" offset="0.804688"/><stop stop-opacity="1" stop-color="rgb(22.956848%, 36.392212%, 78.149414%)" offset="0.8125"/><stop stop-opacity="1" stop-color="rgb(23.065186%, 36.569214%, 78.465271%)" offset="0.820312"/><stop stop-opacity="1" stop-color="rgb(23.173523%, 36.746216%, 78.779602%)" offset="0.828125"/><stop stop-opacity="1" stop-color="rgb(23.28186%, 36.923218%, 79.095459%)" offset="0.835937"/><stop stop-opacity="1" stop-color="rgb(23.390198%, 37.10022%, 79.411316%)" offset="0.84375"/><stop stop-opacity="1" stop-color="rgb(23.498535%, 37.278748%, 79.727173%)" offset="0.851562"/><stop stop-opacity="1" stop-color="rgb(23.606873%, 37.45575%, 80.04303%)" offset="0.859375"/><stop stop-opacity="1" stop-color="rgb(23.71521%, 37.632751%, 80.357361%)" offset="0.867187"/><stop stop-opacity="1" stop-color="rgb(23.823547%, 37.809753%, 80.673218%)" offset="0.875"/><stop stop-opacity="1" stop-color="rgb(23.930359%, 37.988281%, 80.989075%)" offset="0.882812"/><stop stop-opacity="1" stop-color="rgb(24.038696%, 38.165283%, 81.304932%)" offset="0.890625"/><stop stop-opacity="1" stop-color="rgb(24.147034%, 38.342285%, 81.620789%)" offset="0.898437"/><stop stop-opacity="1" stop-color="rgb(24.255371%, 38.519287%, 81.93512%)" offset="0.90625"/><stop stop-opacity="1" stop-color="rgb(24.363708%, 38.696289%, 82.250977%)" offset="0.914062"/><stop stop-opacity="1" stop-color="rgb(24.472046%, 38.874817%, 82.566833%)" offset="0.921875"/><stop stop-opacity="1" stop-color="rgb(24.580383%, 39.051819%, 82.88269%)" offset="0.929687"/><stop stop-opacity="1" stop-color="rgb(24.688721%, 39.228821%, 83.198547%)" offset="0.9375"/><stop stop-opacity="1" stop-color="rgb(24.797058%, 39.405823%, 83.512878%)" offset="0.945312"/><stop stop-opacity="1" stop-color="rgb(24.905396%, 39.582825%, 83.828735%)" offset="0.953125"/><stop stop-opacity="1" stop-color="rgb(25.013733%, 39.761353%, 84.144592%)" offset="0.960938"/><stop stop-opacity="1" stop-color="rgb(25.120544%, 39.938354%, 84.460449%)" offset="0.96875"/><stop stop-opacity="1" stop-color="rgb(25.228882%, 40.115356%, 84.776306%)" offset="0.976562"/><stop stop-opacity="1" stop-color="rgb(25.337219%, 40.292358%, 85.090637%)" offset="0.984375"/><stop stop-opacity="1" stop-color="rgb(25.445557%, 40.46936%, 85.406494%)" offset="0.992188"/><stop stop-opacity="1" stop-color="rgb(25.553894%, 40.647888%, 85.722351%)" offset="1"/></linearGradient><clipPath id="f87da0ed7f"><rect x="0" width="375" y="0" height="375"/></clipPath><clipPath id="4887f3d04a"><path d="M 12.867188 99 L 86 99 L 86 224 L 12.867188 224 Z M 12.867188 99 " clip-rule="nonzero"/></clipPath></defs><g transform="matrix(1, 0, 0, 1, 0, 0)"><g clip-path="url(#f87da0ed7f)"><g clip-path="url(#b5aace511e)"><rect x="-82.5" fill="url(#70a8676ae3)" width="540" height="539.999987" y="-82.499998"/></g></g></g><path fill="#ffffff" d="M 168.765625 124.6875 C 168.765625 124.6875 166.230469 126.097656 161.160156 129.054688 C 160.316406 129.617188 159.1875 130.179688 158.0625 130.746094 C 155.949219 132.011719 153.414062 133.5625 150.597656 135.25 C 150.597656 135.25 147.640625 133.5625 141.726562 130.179688 C 134.96875 116.097656 130.742188 110.464844 129.191406 113.5625 C 125.25 122.152344 125.53125 132.574219 130.601562 141.449219 C 137.21875 152.714844 149.753906 158.347656 162.007812 156.515625 L 176.511719 181.582031 C 179.328125 179.894531 183.128906 179.753906 186.226562 181.582031 L 186.652344 181.867188 L 194.679688 168.0625 L 181.582031 145.25 C 189.1875 135.671875 190.734375 121.871094 184.117188 110.605469 C 179.046875 101.59375 170.03125 96.242188 160.597656 95.257812 C 157.359375 95.398438 160.175781 101.875 168.90625 114.550781 C 168.90625 121.308594 168.765625 124.6875 168.765625 124.6875 Z M 198.339844 219.464844 L 204.394531 230.027344 C 196.789062 239.746094 195.242188 253.40625 201.859375 264.671875 C 206.929688 273.542969 215.800781 279.035156 225.238281 280.023438 C 228.617188 280.164062 225.941406 273.683594 217.070312 260.730469 C 217.210938 253.96875 217.210938 250.589844 217.210938 250.589844 C 220.027344 249.039062 222.5625 247.492188 224.816406 246.222656 C 225.941406 245.660156 226.929688 244.957031 227.914062 244.535156 C 232.984375 241.578125 235.519531 240.167969 235.519531 240.167969 C 235.519531 240.167969 238.476562 241.71875 244.25 245.097656 C 250.867188 258.898438 255.09375 264.53125 256.785156 261.855469 C 260.726562 253.125 260.445312 242.703125 255.375 233.832031 C 248.757812 222.566406 236.222656 216.929688 223.96875 218.761719 L 205.382812 186.511719 L 202.707031 191.160156 L 203.269531 191.441406 C 207.914062 194.117188 209.464844 200.03125 206.789062 204.679688 Z M 198.339844 219.464844 " fill-opacity="1" fill-rule="evenodd"/><path fill="#ffffff" d="M 183.976562 185.386719 L 201.015625 195.242188 C 203.550781 196.652344 204.535156 200.03125 202.988281 202.566406 L 165.667969 267.066406 C 161.582031 274.390625 152.148438 276.785156 144.964844 272.699219 C 137.785156 268.476562 135.25 259.179688 139.472656 251.855469 L 176.652344 187.359375 C 178.203125 184.824219 181.441406 183.835938 183.976562 185.386719 Z M 173.414062 198.625 L 194.820312 211.015625 L 198.199219 205.101562 L 176.792969 192.710938 Z M 152.851562 259.039062 C 150.878906 257.914062 150.175781 255.519531 151.304688 253.546875 L 173.132812 215.664062 C 174.257812 213.832031 176.792969 213.128906 178.765625 214.253906 C 180.59375 215.382812 181.300781 217.777344 180.171875 219.75 L 158.34375 257.632812 C 157.21875 259.460938 154.683594 260.164062 152.851562 259.039062 Z M 152.851562 259.039062 " fill-opacity="1" fill-rule="evenodd"/><path fill="#ffffff" d="M 195.664062 194.539062 L 187.214844 189.609375 L 220.871094 131.589844 L 218.617188 120.324219 L 236.082031 100.609375 L 248.617188 107.789062 L 240.164062 132.714844 L 229.179688 136.519531 Z M 195.664062 194.539062 " fill-opacity="1" fill-rule="evenodd"/><path fill="#ffffff" d="M 192.988281 321.566406 C 124.40625 321.566406 67.792969 270.023438 60.046875 203.410156 L 45.964844 224.394531 C 62.300781 290.304688 122.011719 339.171875 192.988281 339.171875 C 241.855469 339.171875 285.371094 315.933594 313.113281 280.023438 C 311.847656 278.332031 311.144531 276.359375 311.144531 274.25 L 311.144531 262.136719 L 310.863281 262.136719 C 308.75 262.136719 306.917969 261.714844 305.226562 260.730469 C 281.289062 297.34375 240.023438 321.566406 192.988281 321.566406 Z M 65.820312 145.671875 C 83.425781 92.296875 133.699219 53.710938 192.988281 53.710938 C 266.921875 53.710938 326.914062 113.703125 326.914062 187.640625 C 326.914062 192.003906 326.773438 196.230469 326.351562 200.453125 C 327.199219 200.3125 328.183594 200.171875 329.027344 200.171875 L 336.914062 200.171875 C 339.449219 200.171875 341.84375 200.878906 343.816406 202.003906 C 344.238281 197.214844 344.519531 192.425781 344.519531 187.640625 C 344.519531 103.988281 276.640625 36.109375 192.988281 36.109375 C 140.175781 36.109375 93.703125 63.148438 66.523438 103.988281 L 60.890625 145.671875 Z M 65.820312 145.671875 " fill-opacity="1" fill-rule="evenodd"/><g clip-path="url(#4887f3d04a)"><path fill="#ffffff" d="M 38.5 223.128906 L 85.957031 152.574219 L 53.003906 152.574219 L 60.328125 99.058594 L 12.867188 169.613281 L 45.824219 169.613281 Z M 38.5 223.128906 " fill-opacity="1" fill-rule="evenodd"/></g><path fill="#ffffff" d="M 356.488281 244.535156 C 359.585938 244.957031 361.980469 247.632812 361.980469 250.730469 C 361.980469 254.25 359.164062 257.066406 355.644531 257.066406 L 349.730469 257.066406 L 349.730469 274.8125 C 349.730469 277.347656 347.757812 279.320312 345.222656 279.320312 C 342.828125 279.320312 340.71875 277.347656 340.71875 274.8125 L 340.71875 257.066406 L 325.226562 257.066406 L 325.226562 274.8125 C 325.226562 277.347656 323.253906 279.320312 320.71875 279.320312 C 318.324219 279.320312 316.210938 277.347656 316.210938 274.8125 L 316.210938 257.066406 L 310.296875 257.066406 C 306.917969 257.066406 304.101562 254.25 304.101562 250.730469 C 304.101562 247.632812 306.496094 244.957031 309.453125 244.535156 C 309.171875 243.265625 308.890625 242 308.890625 240.589844 L 308.890625 229.324219 C 308.890625 222.707031 313.679688 217.355469 319.875 216.226562 C 319.734375 216.226562 319.734375 216.226562 319.59375 216.226562 L 319.59375 214.253906 C 319.59375 209.046875 323.816406 204.820312 329.027344 204.820312 L 337.054688 204.820312 C 342.125 204.820312 346.351562 209.046875 346.351562 214.253906 L 346.351562 216.226562 C 346.351562 216.226562 346.210938 216.226562 346.066406 216.226562 C 352.265625 217.355469 357.054688 222.707031 357.054688 229.324219 L 357.054688 240.589844 C 357.054688 242 356.914062 243.265625 356.488281 244.535156 Z M 319.875 216.226562 C 320.015625 216.226562 320.15625 216.085938 320.15625 216.085938 C 320.15625 216.085938 320.015625 216.226562 319.875 216.226562 Z M 320.15625 216.085938 C 320.296875 216.085938 320.4375 216.085938 320.578125 216.085938 C 320.4375 216.085938 320.296875 216.085938 320.15625 216.085938 Z M 320.578125 216.085938 C 320.578125 216.085938 320.71875 216.085938 320.859375 216.085938 C 320.71875 216.085938 320.578125 216.085938 320.578125 216.085938 Z M 321.140625 216.085938 C 321.28125 215.945312 321.421875 215.945312 321.5625 215.945312 C 321.421875 215.945312 321.28125 215.945312 321.140625 216.085938 Z M 321.5625 215.945312 C 321.707031 215.945312 321.707031 215.945312 321.847656 215.945312 C 321.707031 215.945312 321.707031 215.945312 321.5625 215.945312 Z M 321.847656 215.945312 C 321.988281 215.945312 322.128906 215.945312 322.269531 215.945312 C 322.128906 215.945312 321.988281 215.945312 321.847656 215.945312 Z M 343.816406 215.945312 C 343.816406 215.945312 343.957031 215.945312 344.097656 215.945312 C 343.957031 215.945312 343.816406 215.945312 343.816406 215.945312 Z M 344.097656 215.945312 C 344.238281 215.945312 344.378906 215.945312 344.378906 215.945312 C 344.378906 215.945312 344.238281 215.945312 344.097656 215.945312 Z M 344.519531 215.945312 C 344.519531 215.945312 344.660156 215.945312 344.800781 216.085938 C 344.660156 215.945312 344.519531 215.945312 344.519531 215.945312 Z M 345.503906 216.085938 C 345.503906 216.085938 345.644531 216.085938 345.785156 216.085938 C 345.644531 216.085938 345.503906 216.085938 345.503906 216.085938 Z M 345.785156 216.085938 C 345.925781 216.085938 345.925781 216.226562 346.070312 216.226562 C 345.925781 216.226562 345.925781 216.085938 345.785156 216.085938 Z M 345.082031 216.085938 C 344.941406 216.085938 344.941406 216.085938 344.800781 216.085938 Z M 321.140625 216.085938 C 321.140625 216.085938 321 216.085938 320.859375 216.085938 Z M 321.140625 216.085938 " fill-opacity="1" fill-rule="evenodd"/></svg>